<svg xmlns="http://www.w3.org/2000/svg" xmlns:xlink="http://www.w3.org/1999/xlink" width="500" zoomAndPan="magnify" viewBox="0 0 375 374.999991" height="500" preserveAspectRatio="xMidYMid meet" version="1.0"><defs><g/><clipPath id="e1bf54231b"><path d="M 7.859375 130.820312 L 64.109375 130.820312 L 64.109375 244.070312 L 7.859375 244.070312 Z M 7.859375 130.820312 " clip-rule="nonzero"/></clipPath><clipPath id="59258b62bc"><path d="M 312.382812 140.902344 L 366.839844 140.902344 L 366.839844 251.902344 L 312.382812 251.902344 Z M 312.382812 140.902344 " clip-rule="nonzero"/></clipPath><clipPath id="2f41509d2a"><path d="M 64.125 118.417969 L 140.625 118.417969 L 140.625 242.917969 L 64.125 242.917969 Z M 64.125 118.417969 " clip-rule="nonzero"/></clipPath></defs><g clip-path="url(#e1bf54231b)"><path fill="#7C3AED" d="M 16.363281 162.292969 C 15.871094 160.089844 15.472656 157.863281 14.976562 155.652344 L 15.347656 155.59375 C 15.847656 157.796875 16.242188 160.019531 16.730469 162.21875 C 17.3125 162.738281 18.828125 164.199219 19.417969 166.179688 C 20.132812 168.6875 18.960938 171.28125 19.003906 171.273438 C 18.96875 171.300781 16.707031 169.742188 15.964844 167.132812 C 15.34375 165.058594 16.046875 163.023438 16.363281 162.292969 Z M 23.402344 179.335938 C 22.925781 182.523438 24.957031 185.867188 25.003906 185.8125 C 25.027344 185.8125 27.554688 183.863281 28.074219 180.730469 C 28.445312 178.261719 27.347656 175.773438 26.902344 174.835938 C 27.441406 172.21875 28.097656 169.644531 28.738281 167.175781 L 28.265625 167 C 27.601562 169.476562 26.957031 172.046875 26.425781 174.660156 C 25.667969 175.214844 23.753906 176.824219 23.402344 179.335938 Z M 26.871094 187.203125 C 26.527344 190.453125 28.894531 193.582031 28.875 193.574219 C 28.882812 193.574219 31.382812 191.433594 31.589844 188.320312 C 31.835938 185.800781 30.585938 183.367188 30.058594 182.472656 C 30.410156 179.828125 30.871094 177.214844 31.335938 174.691406 L 30.84375 174.550781 C 30.386719 177.0625 29.914062 179.679688 29.558594 182.328125 C 28.867188 182.914062 27.101562 184.632812 26.871094 187.203125 Z M 30.800781 194.863281 C 30.703125 198.089844 33.199219 201.117188 33.175781 201.113281 C 33.179688 201.117188 35.5625 198.832031 35.609375 195.675781 C 35.613281 193.175781 34.269531 190.753906 33.710938 189.894531 C 33.886719 187.234375 34.132812 184.613281 34.484375 182.039062 L 33.988281 181.921875 C 33.632812 184.507812 33.375 187.140625 33.195312 189.816406 C 32.53125 190.460938 30.902344 192.292969 30.800781 194.863281 Z M 37.601562 189.136719 C 37.394531 191.769531 37.3125 194.425781 37.296875 197.105469 C 36.667969 197.785156 35.097656 199.722656 35.179688 202.277344 C 35.277344 205.503906 37.855469 208.441406 37.867188 208.433594 C 37.886719 208.449219 40.121094 206.035156 40.039062 202.859375 C 39.945312 200.34375 38.417969 198.039062 37.808594 197.1875 C 37.816406 194.503906 37.890625 191.855469 38.101562 189.226562 Z M 42.664062 215.703125 C 42.648438 215.703125 44.964844 213.34375 44.796875 210.113281 C 44.679688 207.554688 42.996094 205.164062 42.316406 204.292969 C 42.199219 201.554688 42.144531 198.871094 42.136719 196.261719 L 41.636719 196.199219 C 41.632812 198.816406 41.679688 201.488281 41.792969 204.21875 C 41.210938 204.925781 39.769531 206.957031 39.90625 209.550781 C 40.074219 212.789062 42.648438 215.703125 42.664062 215.703125 Z M 18.175781 184.960938 C 20.777344 187.019531 24.089844 186.25 24.058594 186.25 C 24 186.265625 23.003906 182.527344 20.429688 180.519531 C 18.320312 178.9375 15.878906 178.851562 14.960938 178.878906 C 12.789062 177.015625 10.679688 175.042969 8.554688 172.996094 L 8.261719 173.472656 C 10.417969 175.507812 12.515625 177.476562 14.679688 179.335938 C 14.984375 180.425781 16.046875 183.324219 18.175781 184.960938 Z M 24.566406 173.117188 C 24.984375 171.027344 24.207031 168.824219 23.890625 167.980469 C 24.5 165.746094 25.195312 163.554688 25.832031 161.449219 L 25.425781 161.265625 C 24.78125 163.375 24.105469 165.5625 23.492188 167.78125 C 22.816406 168.21875 21.066406 169.507812 20.613281 171.648438 C 20.046875 174.34375 21.609375 177.332031 21.59375 177.316406 C 21.59375 177.3125 23.992188 175.761719 24.566406 173.117188 Z M 13.128906 171.171875 C 13.316406 172.113281 14.03125 174.65625 15.8125 176.175781 C 17.96875 178.066406 20.757812 177.628906 20.765625 177.636719 C 20.757812 177.628906 20.128906 174.359375 17.976562 172.511719 C 16.277344 171.023438 14.191406 170.8125 13.402344 170.792969 C 11.652344 169.085938 9.941406 167.304688 8.167969 165.472656 L 7.90625 165.867188 C 9.6875 167.675781 11.382812 169.464844 13.128906 171.171875 Z M 21.976562 193.179688 C 24.800781 195 27.960938 194.058594 27.964844 194.074219 C 27.960938 194.0625 26.605469 190.453125 23.972656 188.59375 C 21.835938 187.132812 19.347656 187.226562 18.40625 187.328125 C 16.117188 185.617188 13.886719 183.796875 11.589844 181.914062 L 11.355469 182.414062 C 13.636719 184.285156 15.871094 186.089844 18.15625 187.792969 C 18.550781 188.839844 19.785156 191.652344 21.976562 193.179688 Z M 26.304688 201.074219 C 29.199219 202.761719 32.289062 201.660156 32.289062 201.660156 C 32.300781 201.632812 30.78125 198.085938 27.996094 196.421875 C 25.769531 195.0625 23.277344 195.324219 22.371094 195.492188 C 19.976562 193.945312 17.609375 192.304688 15.269531 190.550781 L 15.058594 191.054688 C 17.402344 192.804688 19.792969 194.441406 22.199219 195.992188 C 22.652344 197.039062 23.96875 199.777344 26.304688 201.074219 Z M 31.007812 208.726562 C 33.949219 210.261719 36.988281 208.972656 36.992188 209.007812 C 36.984375 209.007812 35.355469 205.496094 32.464844 203.980469 C 30.128906 202.785156 27.699219 203.167969 26.808594 203.375 C 24.328125 201.984375 21.851562 200.511719 19.445312 198.914062 L 19.261719 199.417969 C 21.679688 201.011719 24.152344 202.484375 26.632812 203.875 C 27.125 204.882812 28.644531 207.511719 31.007812 208.726562 Z M 37.222656 211.3125 C 34.914062 210.183594 32.511719 210.707031 31.613281 210.972656 C 29.117188 209.71875 26.589844 208.378906 24.050781 206.960938 L 23.898438 207.480469 C 26.441406 208.894531 28.957031 210.222656 31.445312 211.472656 C 31.957031 212.40625 33.460938 214.851562 35.808594 216.023438 C 38.722656 217.460938 41.785156 216.261719 41.785156 216.261719 C 41.789062 216.273438 40.136719 212.753906 37.222656 211.3125 Z M 42.917969 216.316406 L 42.0625 216.871094 C 48.398438 226.464844 55.207031 235.851562 63.339844 244.070312 L 64.058594 243.347656 C 56.015625 235.195312 49.238281 225.886719 42.917969 216.316406 Z M 50.085938 141.738281 C 50.308594 139.804688 49.148438 137.953125 48.664062 137.273438 C 48.957031 135.144531 49.335938 133.027344 49.742188 130.929688 L 49.300781 130.820312 C 48.890625 132.941406 48.503906 135.066406 48.210938 137.199219 C 47.601562 137.730469 46.039062 139.285156 45.800781 141.363281 C 45.605469 143.949219 47.667969 146.136719 47.664062 146.128906 C 47.671875 146.113281 49.90625 144.195312 50.085938 141.738281 Z M 49.136719 154.8125 C 47.222656 157.480469 47.980469 161.144531 47.988281 161.140625 C 47.988281 161.140625 51.832031 160.3125 53.734375 157.675781 C 55.21875 155.582031 55.140625 152.96875 55.054688 151.984375 C 56.746094 149.835938 58.457031 147.761719 60.289062 145.835938 L 59.824219 145.523438 C 57.992188 147.449219 56.269531 149.523438 54.570312 151.679688 C 53.492188 151.921875 50.710938 152.699219 49.136719 154.8125 Z M 54.660156 159.644531 C 53.605469 159.925781 50.832031 160.84375 49.390625 163.03125 C 47.5625 165.78125 48.464844 169.421875 48.496094 169.40625 C 48.507812 169.410156 52.246094 168.441406 54.085938 165.722656 C 55.527344 163.566406 55.28125 160.921875 55.140625 159.9375 C 56.75 157.695312 58.410156 155.511719 60.0625 153.40625 L 59.59375 153.105469 C 57.914062 155.210938 56.265625 157.398438 54.660156 159.644531 Z M 59.734375 160.867188 C 58.1875 163.078125 56.613281 165.347656 55.089844 167.660156 C 54.066406 167.980469 51.351562 169.003906 49.960938 171.253906 C 48.191406 174.070312 49.261719 177.664062 49.269531 177.660156 C 49.273438 177.660156 53.023438 176.582031 54.722656 173.792969 C 56.113281 171.59375 55.785156 168.941406 55.59375 167.945312 C 57.109375 165.628906 58.675781 163.359375 60.234375 161.136719 Z M 60.21875 168.710938 C 58.710938 170.992188 57.242188 173.332031 55.804688 175.703125 C 54.78125 176.0625 52.109375 177.175781 50.78125 179.460938 C 49.078125 182.335938 50.300781 185.898438 50.277344 185.894531 C 50.277344 185.894531 54.019531 184.707031 55.625 181.863281 C 56.921875 179.613281 56.535156 176.960938 56.320312 175.96875 C 57.757812 173.59375 59.21875 171.261719 60.730469 168.984375 Z M 51.828125 187.65625 C 50.261719 190.558594 51.519531 194.09375 51.515625 194.09375 C 51.515625 194.09375 55.214844 192.800781 56.757812 189.925781 C 57.960938 187.632812 57.523438 184.992188 57.28125 184.003906 C 58.652344 181.585938 60.03125 179.199219 61.484375 176.855469 L 60.964844 176.605469 C 59.519531 178.945312 58.136719 181.324219 56.765625 183.742188 C 55.753906 184.132812 53.105469 185.324219 51.828125 187.65625 Z M 40.828125 157.992188 C 42.871094 160.707031 46.738281 161.195312 46.738281 161.195312 C 46.75 161.179688 47.316406 157.511719 45.277344 154.84375 C 43.722656 152.699219 40.957031 151.777344 39.902344 151.496094 C 38.246094 149.097656 36.621094 146.625 35.132812 144.019531 L 34.621094 144.339844 C 36.113281 146.957031 37.75 149.425781 39.414062 151.820312 C 39.289062 152.902344 39.15625 155.816406 40.828125 157.992188 Z M 49.285156 147.003906 C 47.453125 149.207031 48.0625 152.40625 48.042969 152.390625 C 48.042969 152.398438 51.382812 151.828125 53.109375 149.660156 C 54.476562 147.917969 54.542969 145.675781 54.503906 144.847656 C 56.054688 143.09375 57.625 141.421875 59.289062 139.898438 L 58.902344 139.613281 C 57.238281 141.144531 55.644531 142.8125 54.078125 144.570312 C 53.140625 144.722656 50.742188 145.261719 49.285156 147.003906 Z M 41.976562 149.378906 C 43.640625 151.796875 46.964844 152.375 46.957031 152.375 C 46.984375 152.375 47.523438 149.242188 45.964844 146.851562 C 44.71875 144.945312 42.375 144.027344 41.480469 143.730469 C 40.167969 141.582031 38.898438 139.359375 37.75 137.015625 L 37.296875 137.273438 C 38.449219 139.628906 39.730469 141.859375 41.050781 144.011719 C 40.898438 144.960938 40.628906 147.453125 41.976562 149.378906 Z M 41.195312 166.535156 C 43.296875 169.15625 47.265625 169.496094 47.25 169.507812 C 47.214844 169.503906 47.648438 165.808594 45.542969 163.21875 C 43.84375 161.167969 41.074219 160.378906 40.007812 160.148438 C 38.246094 157.847656 36.535156 155.484375 34.851562 153.035156 L 34.355469 153.375 C 36.058594 155.824219 37.761719 158.1875 39.515625 160.484375 C 39.445312 161.546875 39.480469 164.425781 41.195312 166.535156 Z M 41.855469 175.039062 C 44.097656 177.566406 48.03125 177.792969 48.023438 177.792969 C 48.019531 177.785156 48.28125 174.085938 46.121094 171.578125 C 44.378906 169.585938 41.566406 168.914062 40.472656 168.71875 C 38.636719 166.5 36.84375 164.222656 35.015625 161.898438 L 34.546875 162.261719 C 36.355469 164.582031 38.160156 166.847656 40 169.0625 C 39.976562 170.117188 40.09375 172.988281 41.855469 175.039062 Z M 42.796875 183.476562 C 45.125 185.945312 49.042969 186.058594 49.039062 186.058594 C 49.058594 186.050781 49.179688 182.34375 46.949219 179.902344 C 45.152344 177.960938 42.308594 177.382812 41.21875 177.226562 C 39.304688 175.074219 37.421875 172.882812 35.558594 170.636719 L 35.105469 171.003906 C 36.960938 173.261719 38.851562 175.453125 40.765625 177.601562 C 40.773438 178.664062 40.972656 181.503906 42.796875 183.476562 Z M 48.011719 188.195312 C 46.164062 186.300781 43.300781 185.804688 42.21875 185.679688 C 40.246094 183.59375 38.28125 181.46875 36.371094 179.28125 L 35.933594 179.671875 C 37.839844 181.855469 39.808594 183.984375 41.785156 186.074219 C 41.8125 187.148438 42.074219 189.972656 43.984375 191.882812 C 46.359375 194.28125 50.273438 194.289062 50.273438 194.289062 C 50.28125 194.292969 50.363281 190.574219 48.011719 188.195312 Z M 58.949219 226.652344 C 55.511719 216.285156 53.324219 205.515625 51.445312 194.730469 L 50.246094 194.941406 C 52.125 205.757812 54.308594 216.550781 57.789062 227.050781 Z M 58.949219 226.652344 " fill-opacity="1" fill-rule="nonzero"/></g><g clip-path="url(#59258b62bc)"><path fill="#7C3AED" d="M 358.855469 171.746094 C 359.335938 169.585938 359.722656 167.40625 360.203125 165.238281 L 359.84375 165.179688 C 359.355469 167.339844 358.972656 169.519531 358.496094 171.675781 C 357.933594 172.183594 356.457031 173.617188 355.882812 175.558594 C 355.1875 178.015625 356.324219 180.558594 356.285156 180.550781 C 356.320312 180.578125 358.523438 179.046875 359.246094 176.492188 C 359.851562 174.460938 359.164062 172.460938 358.855469 171.746094 Z M 352.003906 188.453125 C 352.46875 191.578125 350.492188 194.851562 350.445312 194.800781 C 350.421875 194.796875 347.960938 192.890625 347.457031 189.816406 C 347.097656 187.402344 348.164062 184.960938 348.597656 184.039062 C 348.074219 181.476562 347.433594 178.953125 346.808594 176.53125 L 347.269531 176.363281 C 347.917969 178.789062 348.542969 181.308594 349.0625 183.867188 C 349.800781 184.414062 351.664062 185.992188 352.003906 188.453125 Z M 348.628906 196.164062 C 348.960938 199.347656 346.660156 202.417969 346.675781 202.410156 C 346.667969 202.40625 344.238281 200.308594 344.035156 197.257812 C 343.796875 194.789062 345.011719 192.402344 345.527344 191.527344 C 345.183594 188.933594 344.734375 186.375 344.28125 183.898438 L 344.761719 183.761719 C 345.203125 186.226562 345.664062 188.789062 346.011719 191.386719 C 346.683594 191.957031 348.402344 193.644531 348.628906 196.164062 Z M 344.804688 203.671875 C 344.898438 206.832031 342.46875 209.800781 342.488281 209.796875 C 342.488281 209.800781 340.167969 207.558594 340.121094 204.46875 C 340.117188 202.015625 341.425781 199.644531 341.96875 198.800781 C 341.800781 196.195312 341.5625 193.625 341.214844 191.101562 L 341.699219 190.988281 C 342.046875 193.523438 342.296875 196.101562 342.472656 198.726562 C 343.117188 199.355469 344.703125 201.152344 344.804688 203.671875 Z M 338.183594 198.058594 C 338.386719 200.640625 338.460938 203.242188 338.476562 205.871094 C 339.09375 206.535156 340.621094 208.4375 340.539062 210.9375 C 340.445312 214.101562 337.933594 216.976562 337.925781 216.972656 C 337.90625 216.988281 335.730469 214.621094 335.8125 211.507812 C 335.902344 209.042969 337.386719 206.78125 337.984375 205.949219 C 337.976562 203.316406 337.902344 200.722656 337.699219 198.148438 Z M 333.257812 224.097656 C 333.269531 224.097656 331.015625 221.785156 331.175781 218.617188 C 331.292969 216.109375 332.929688 213.769531 333.59375 212.914062 C 333.707031 210.226562 333.761719 207.597656 333.765625 205.042969 L 334.253906 204.980469 C 334.261719 207.546875 334.214844 210.164062 334.105469 212.839844 C 334.667969 213.53125 336.074219 215.523438 335.9375 218.066406 C 335.777344 221.242188 333.269531 224.097656 333.257812 224.097656 Z M 357.089844 193.964844 C 354.558594 195.984375 351.335938 195.226562 351.363281 195.226562 C 351.421875 195.246094 352.390625 191.582031 354.898438 189.613281 C 356.949219 188.0625 359.328125 187.976562 360.222656 188.003906 C 362.335938 186.179688 364.390625 184.246094 366.457031 182.242188 L 366.742188 182.703125 C 364.640625 184.699219 362.601562 186.632812 360.496094 188.453125 C 360.195312 189.523438 359.164062 192.359375 357.089844 193.964844 Z M 350.871094 182.355469 C 350.464844 180.308594 351.21875 178.148438 351.53125 177.320312 C 350.9375 175.132812 350.257812 172.984375 349.640625 170.917969 L 350.035156 170.738281 C 350.660156 172.808594 351.320312 174.949219 351.917969 177.128906 C 352.574219 177.554688 354.277344 178.816406 354.71875 180.917969 C 355.269531 183.558594 353.75 186.488281 353.765625 186.472656 C 353.761719 186.46875 351.429688 184.949219 350.871094 182.355469 Z M 362.007812 180.449219 C 361.824219 181.375 361.125 183.867188 359.394531 185.355469 C 357.292969 187.207031 354.578125 186.78125 354.570312 186.785156 C 354.578125 186.78125 355.191406 183.574219 357.285156 181.765625 C 358.941406 180.308594 360.96875 180.097656 361.738281 180.082031 C 363.441406 178.40625 365.105469 176.65625 366.832031 174.863281 L 367.085938 175.25 C 365.355469 177.023438 363.707031 178.777344 362.007812 180.449219 Z M 353.394531 202.023438 C 350.644531 203.804688 347.566406 202.882812 347.5625 202.898438 C 347.566406 202.886719 348.886719 199.347656 351.449219 197.527344 C 353.527344 196.09375 355.949219 196.183594 356.871094 196.285156 C 359.09375 194.609375 361.265625 192.824219 363.5 190.980469 L 363.730469 191.46875 C 361.511719 193.304688 359.335938 195.074219 357.113281 196.738281 C 356.726562 197.765625 355.523438 200.523438 353.394531 202.023438 Z M 349.179688 209.761719 C 346.363281 211.410156 343.355469 210.332031 343.355469 210.332031 C 343.34375 210.308594 344.820312 206.832031 347.535156 205.199219 C 349.699219 203.863281 352.125 204.125 353.007812 204.289062 C 355.339844 202.769531 357.644531 201.164062 359.921875 199.445312 L 360.128906 199.9375 C 357.847656 201.65625 355.515625 203.257812 353.175781 204.777344 C 352.734375 205.804688 351.453125 208.488281 349.179688 209.761719 Z M 344.601562 217.261719 C 341.738281 218.761719 338.777344 217.503906 338.777344 217.535156 C 338.785156 217.535156 340.367188 214.09375 343.183594 212.609375 C 345.457031 211.433594 347.820312 211.8125 348.6875 212.015625 C 351.101562 210.648438 353.511719 209.207031 355.855469 207.640625 L 356.035156 208.136719 C 353.683594 209.695312 351.273438 211.140625 348.863281 212.503906 C 348.382812 213.492188 346.902344 216.070312 344.601562 217.261719 Z M 338.550781 219.792969 C 340.796875 218.6875 343.136719 219.203125 344.011719 219.460938 C 346.441406 218.230469 348.902344 216.917969 351.371094 215.53125 L 351.523438 216.039062 C 349.046875 217.421875 346.597656 218.722656 344.175781 219.949219 C 343.675781 220.867188 342.214844 223.265625 339.929688 224.410156 C 337.09375 225.820312 334.109375 224.644531 334.109375 224.644531 C 334.105469 224.65625 335.71875 221.207031 338.550781 219.792969 Z M 333.007812 224.699219 L 333.839844 225.242188 C 327.671875 234.644531 321.046875 243.84375 313.128906 251.902344 L 312.429688 251.191406 C 320.257812 243.203125 326.855469 234.078125 333.007812 224.699219 Z M 326.03125 151.601562 C 325.8125 149.707031 326.945312 147.890625 327.414062 147.226562 C 327.128906 145.140625 326.761719 143.066406 326.367188 141.007812 L 326.796875 140.902344 C 327.195312 142.976562 327.570312 145.0625 327.855469 147.152344 C 328.449219 147.671875 329.96875 149.195312 330.203125 151.234375 C 330.390625 153.765625 328.382812 155.910156 328.386719 155.902344 C 328.378906 155.886719 326.207031 154.007812 326.03125 151.601562 Z M 326.957031 164.414062 C 328.816406 167.03125 328.082031 170.625 328.074219 170.617188 C 328.074219 170.617188 324.332031 169.804688 322.476562 167.222656 C 321.035156 165.171875 321.109375 162.609375 321.195312 161.644531 C 319.546875 159.535156 317.882812 157.507812 316.097656 155.617188 L 316.554688 155.3125 C 318.335938 157.199219 320.011719 159.230469 321.667969 161.34375 C 322.714844 161.582031 325.421875 162.347656 326.957031 164.414062 Z M 321.578125 169.152344 C 322.605469 169.425781 325.304688 170.328125 326.707031 172.472656 C 328.488281 175.167969 327.605469 178.734375 327.578125 178.71875 C 327.566406 178.722656 323.925781 177.773438 322.136719 175.109375 C 320.734375 172.996094 320.976562 170.40625 321.109375 169.441406 C 319.542969 167.238281 317.929688 165.101562 316.316406 163.035156 L 316.777344 162.742188 C 318.410156 164.804688 320.015625 166.953125 321.578125 169.152344 Z M 316.640625 170.347656 C 318.144531 172.519531 319.675781 174.738281 321.160156 177.011719 C 322.15625 177.324219 324.796875 178.324219 326.152344 180.53125 C 327.875 183.292969 326.832031 186.8125 326.828125 186.8125 C 326.820312 186.808594 323.167969 185.753906 321.519531 183.019531 C 320.164062 180.863281 320.484375 178.265625 320.671875 177.289062 C 319.195312 175.015625 317.667969 172.792969 316.152344 170.617188 Z M 316.167969 178.039062 C 317.632812 180.273438 319.0625 182.566406 320.464844 184.894531 C 321.460938 185.246094 324.058594 186.335938 325.355469 188.574219 C 327.011719 191.394531 325.824219 194.886719 325.84375 194.882812 C 325.84375 194.882812 322.203125 193.714844 320.636719 190.929688 C 319.378906 188.722656 319.753906 186.121094 319.960938 185.152344 C 318.5625 182.824219 317.140625 180.539062 315.667969 178.304688 Z M 324.335938 196.605469 C 325.859375 199.453125 324.636719 202.914062 324.640625 202.917969 C 324.640625 202.917969 321.039062 201.648438 319.535156 198.828125 C 318.363281 196.585938 318.789062 193.996094 319.027344 193.027344 C 317.691406 190.65625 316.347656 188.316406 314.9375 186.023438 L 315.441406 185.777344 C 316.847656 188.070312 318.195312 190.402344 319.527344 192.769531 C 320.511719 193.152344 323.089844 194.320312 324.335938 196.605469 Z M 335.042969 167.53125 C 333.054688 170.195312 329.289062 170.671875 329.289062 170.671875 C 329.277344 170.65625 328.726562 167.0625 330.710938 164.445312 C 332.226562 162.34375 334.917969 161.441406 335.945312 161.164062 C 337.554688 158.816406 339.136719 156.390625 340.585938 153.839844 L 341.082031 154.152344 C 339.632812 156.714844 338.035156 159.136719 336.417969 161.484375 C 336.539062 162.542969 336.667969 165.402344 335.042969 167.53125 Z M 326.8125 156.765625 C 328.59375 158.921875 328 162.054688 328.019531 162.042969 C 328.019531 162.046875 324.769531 161.492188 323.089844 159.363281 C 321.757812 157.65625 321.691406 155.460938 321.730469 154.648438 C 320.21875 152.929688 318.691406 151.289062 317.074219 149.796875 L 317.449219 149.519531 C 319.070312 151.019531 320.621094 152.65625 322.144531 154.378906 C 323.058594 154.523438 325.390625 155.054688 326.8125 156.765625 Z M 333.921875 159.089844 C 332.304688 161.460938 329.070312 162.027344 329.078125 162.027344 C 329.050781 162.027344 328.527344 158.957031 330.042969 156.613281 C 331.257812 154.746094 333.539062 153.84375 334.40625 153.554688 C 335.6875 151.449219 336.921875 149.273438 338.039062 146.972656 L 338.476562 147.226562 C 337.359375 149.535156 336.109375 151.71875 334.828125 153.828125 C 334.972656 154.757812 335.234375 157.203125 333.921875 159.089844 Z M 334.683594 175.90625 C 332.640625 178.476562 328.777344 178.808594 328.792969 178.816406 C 328.828125 178.816406 328.402344 175.191406 330.453125 172.65625 C 332.105469 170.644531 334.804688 169.871094 335.84375 169.644531 C 337.554688 167.390625 339.222656 165.074219 340.859375 162.675781 L 341.339844 163.007812 C 339.683594 165.40625 338.027344 167.722656 336.320312 169.972656 C 336.386719 171.015625 336.351562 173.839844 334.683594 175.90625 Z M 334.039062 184.242188 C 331.859375 186.71875 328.03125 186.9375 328.039062 186.941406 C 328.042969 186.933594 327.789062 183.308594 329.890625 180.847656 C 331.585938 178.894531 334.324219 178.238281 335.386719 178.046875 C 337.175781 175.871094 338.921875 173.636719 340.699219 171.359375 L 341.15625 171.714844 C 339.394531 173.992188 337.636719 176.214844 335.851562 178.382812 C 335.871094 179.417969 335.753906 182.234375 334.039062 184.242188 Z M 333.125 192.511719 C 330.859375 194.929688 327.046875 195.039062 327.046875 195.042969 C 327.03125 195.035156 326.914062 191.398438 329.085938 189.007812 C 330.832031 187.101562 333.601562 186.539062 334.664062 186.382812 C 336.523438 184.277344 338.359375 182.128906 340.171875 179.925781 L 340.613281 180.285156 C 338.808594 182.5 336.964844 184.644531 335.101562 186.75 C 335.09375 187.792969 334.902344 190.578125 333.125 192.511719 Z M 328.046875 197.136719 C 329.847656 195.277344 332.636719 194.789062 333.6875 194.671875 C 335.605469 192.625 337.519531 190.542969 339.382812 188.398438 L 339.804688 188.78125 C 337.953125 190.921875 336.035156 193.007812 334.113281 195.058594 C 334.082031 196.109375 333.828125 198.878906 331.972656 200.746094 C 329.660156 203.101562 325.847656 203.109375 325.847656 203.109375 C 325.839844 203.113281 325.761719 199.464844 328.046875 197.136719 Z M 317.40625 234.828125 C 320.746094 224.664062 322.878906 214.109375 324.707031 203.542969 L 325.875 203.746094 C 324.046875 214.347656 321.917969 224.925781 318.53125 235.21875 Z M 317.40625 234.828125 " fill-opacity="1" fill-rule="nonzero"/></g><g fill="#7C3AED" fill-opacity="1"><g transform="translate(190.72298, 248.906157)"><g><path d="M 20.765625 -24.496094 L 20.765625 -2.167969 C 20.765625 -1.101562 20.84375 -0.113281 19.96875 0 C 18.980469 0.113281 17.992188 0.113281 16.964844 0 C 16.203125 -0.0742188 16.277344 -0.949219 16.277344 -1.902344 L 16.316406 -7.152344 C 16.355469 -9.015625 16.242188 -9.851562 15.785156 -9.851562 C 15.441406 -9.851562 15.253906 -9.355469 15.023438 -8.253906 L 14.1875 -3.992188 C 13.921875 -2.699219 13.691406 -1.75 13.539062 -1.066406 C 13.425781 -0.648438 13.273438 -0.34375 13.121094 -0.191406 C 12.816406 0.0742188 11.636719 0.113281 10.574219 0.0390625 C 9.8125 0 9.585938 -0.191406 9.433594 -0.914062 C 9.203125 -1.902344 8.632812 -4.296875 8.480469 -4.832031 C 7.949219 -7.1875 7.644531 -8.746094 7.152344 -9.890625 C 7 -10.191406 6.617188 -10.042969 6.578125 -9.890625 C 6.464844 -9.660156 6.390625 -9.203125 6.390625 -8.558594 L 6.390625 -2.09375 C 6.390625 -1.027344 6.464844 -0.113281 5.515625 0.0390625 C 4.601562 0.113281 3.652344 0.113281 2.699219 0.0390625 C 1.789062 -0.0742188 1.902344 -0.875 1.902344 -2.128906 L 1.902344 -24.457031 C 1.902344 -25.558594 1.789062 -26.511719 2.738281 -26.546875 L 7.378906 -26.546875 C 7.796875 -26.546875 8.101562 -26.28125 8.214844 -25.789062 L 8.746094 -23.164062 L 10.726562 -13.160156 C 10.765625 -12.96875 10.839844 -12.589844 10.992188 -12.132812 C 11.144531 -11.675781 11.828125 -11.636719 11.980469 -12.246094 C 11.980469 -12.246094 14.1875 -23.960938 14.226562 -24.039062 C 14.53125 -25.75 14.414062 -26.546875 15.554688 -26.546875 C 17.269531 -26.585938 18.714844 -26.585938 19.890625 -26.546875 C 20.917969 -26.511719 20.765625 -25.597656 20.765625 -24.496094 Z M 9.46875 -24.648438 L 9.128906 -24.648438 L 10.992188 -15.402344 C 11.105469 -14.832031 11.21875 -13.921875 11.296875 -13.464844 C 11.335938 -13.199219 11.5625 -13.199219 11.601562 -13.464844 L 11.980469 -15.746094 L 10.308594 -24 C 10.191406 -24.496094 9.890625 -24.648438 9.46875 -24.648438 Z M 21.453125 -24.648438 L 21.453125 -2.167969 C 21.453125 -0.191406 21.566406 0.496094 20.042969 0.683594 C 19.4375 0.761719 18.789062 0.796875 18.179688 0.761719 C 18.21875 1.371094 18.332031 1.863281 18.867188 1.902344 C 19.890625 1.976562 20.3125 1.941406 21.300781 1.863281 C 22.289062 1.789062 22.667969 0.796875 22.667969 -0.265625 L 22.667969 -22.59375 C 22.667969 -24.039062 22.820312 -24.648438 21.453125 -24.648438 Z M 6.960938 -7.988281 L 7.074219 -2.09375 C 7.113281 0.0742188 7.1875 0.496094 5.589844 0.722656 C 5.019531 0.761719 4.410156 0.796875 3.804688 0.761719 C 3.839844 1.445312 3.957031 1.863281 4.601562 1.941406 C 5.554688 2.015625 6.160156 2.054688 7.074219 1.941406 C 8.367188 1.789062 8.292969 0.457031 8.292969 -0.609375 L 8.292969 -2.777344 C 8.101562 -3.613281 7.910156 -4.410156 7.875 -4.679688 L 7.1875 -8.0625 C 7.152344 -8.253906 6.960938 -8.253906 6.960938 -7.988281 Z M 15.59375 -1.902344 L 15.785156 -7.835938 C 15.785156 -8.0625 15.554688 -8.101562 15.519531 -7.875 L 14.871094 -3.839844 C 14.679688 -2.546875 14.378906 -1.597656 14.226562 -0.914062 C 14.074219 -0.417969 13.882812 0.191406 13.617188 0.417969 C 13.273438 0.761719 12.4375 0.761719 11.296875 0.761719 C 11.296875 1.597656 11.753906 1.902344 12.476562 1.941406 C 13.539062 2.015625 14.71875 1.976562 15.023438 1.710938 C 15.175781 1.558594 15.328125 1.253906 15.441406 0.835938 L 15.707031 -0.34375 C 15.554688 -0.835938 15.59375 -1.445312 15.59375 -1.902344 Z M 15.59375 -1.902344 "/></g></g></g><g fill="#7C3AED" fill-opacity="1"><g transform="translate(218.332103, 248.906157)"><g><path d="M 15.253906 -2.28125 C 15.214844 -2.585938 12.511719 -18.523438 11.449219 -24.835938 C 11.335938 -25.445312 11.183594 -26.128906 10.914062 -26.394531 C 10.765625 -26.511719 10.460938 -26.585938 10.078125 -26.625 L 6.617188 -26.625 C 5.402344 -26.625 5.097656 -26.394531 4.867188 -25.140625 C 4.527344 -23.050781 1.824219 -7.152344 0.914062 -1.976562 C 0.761719 -0.875 0.496094 -0.0742188 1.558594 -0.0390625 C 2.359375 0 3.347656 0 4.527344 -0.0390625 C 5.058594 -0.0390625 5.363281 -0.304688 5.476562 -0.875 C 5.78125 -2.625 5.972656 -3.652344 6.007812 -3.957031 C 6.238281 -5.894531 6.542969 -5.972656 8.519531 -5.972656 C 8.519531 -5.972656 8.632812 -5.972656 8.824219 -5.933594 C 10.15625 -5.894531 10.230469 -4.070312 10.269531 -3.6875 C 10.34375 -3.386719 10.382812 -2.929688 10.460938 -2.359375 C 10.613281 -1.140625 10.648438 -0.570312 10.992188 -0.265625 C 11.144531 -0.113281 11.371094 -0.0390625 11.753906 0 C 12.058594 0 14.757812 0.113281 15.101562 -0.226562 C 15.402344 -0.496094 15.441406 -1.179688 15.253906 -2.28125 Z M 17.496094 -0.378906 C 17.535156 -0.378906 13.65625 -22.859375 13.65625 -22.898438 C 13.539062 -23.503906 13.386719 -24.191406 13.121094 -24.457031 C 12.894531 -24.609375 12.78125 -24.683594 12.171875 -24.683594 C 12.4375 -23.125 12.664062 -21.71875 12.894531 -20.5 C 13.234375 -18.292969 15.328125 -5.972656 15.632812 -4.261719 C 15.824219 -3.003906 15.898438 -2.546875 15.9375 -2.394531 C 16.164062 -0.988281 16.242188 -0.113281 15.976562 0.191406 C 15.519531 0.722656 14.71875 0.722656 12.933594 0.722656 C 12.78125 0.722656 12.628906 0.683594 12.511719 0.683594 C 12.589844 1.179688 12.664062 1.445312 12.894531 1.636719 C 13.046875 1.789062 13.273438 1.902344 13.65625 1.902344 C 16.734375 1.902344 16.925781 1.902344 17.421875 1.484375 C 17.722656 1.21875 17.6875 0.722656 17.496094 -0.378906 Z M 9.28125 -10.648438 C 9.203125 -10.15625 7.074219 -10.117188 7.074219 -10.6875 C 7.074219 -10.800781 7.074219 -10.992188 7.113281 -11.183594 C 7.226562 -12.78125 7.453125 -13.957031 7.722656 -14.679688 C 7.875 -14.949219 8.292969 -15.101562 8.519531 -14.679688 C 8.632812 -14.453125 8.710938 -14.261719 8.746094 -14.109375 C 8.746094 -13.996094 9.167969 -11.980469 9.242188 -11.296875 C 9.28125 -10.953125 9.28125 -10.726562 9.28125 -10.648438 Z M 8.519531 -11.03125 L 8.519531 -11.21875 C 8.480469 -11.601562 8.292969 -12.550781 8.175781 -13.160156 C 8.140625 -13.3125 8.140625 -13.386719 8.101562 -13.503906 C 7.988281 -12.933594 7.875 -12.171875 7.796875 -11.144531 L 7.796875 -10.992188 L 8.140625 -10.992188 C 8.292969 -10.992188 8.445312 -10.992188 8.519531 -11.03125 Z M 8.785156 -5.210938 L 8.710938 -5.210938 L 8.671875 -5.25 L 8.519531 -5.25 C 7.910156 -5.25 7.1875 -5.25 7.035156 -5.132812 C 6.847656 -4.984375 6.730469 -4.183594 6.695312 -3.878906 C 6.695312 -3.652344 6.578125 -3.195312 6.464844 -2.359375 L 6.160156 -0.722656 C 6.007812 0.152344 5.402344 0.648438 4.527344 0.648438 C 3.957031 0.683594 3.386719 0.683594 2.890625 0.683594 L 2.699219 0.683594 C 2.625 1.371094 2.664062 1.824219 3.460938 1.863281 C 4.261719 1.902344 4.449219 1.863281 5.628906 1.863281 C 6.882812 1.863281 7.1875 0.875 7.300781 0.304688 C 7.605469 -1.40625 7.644531 -1.75 7.683594 -2.054688 C 7.910156 -3.804688 7.988281 -4.03125 9.507812 -4.070312 C 9.320312 -5.210938 8.9375 -5.210938 8.785156 -5.210938 Z M 8.785156 -5.210938 "/></g></g></g><g fill="#7C3AED" fill-opacity="1"><g transform="translate(239.400413, 248.906157)"><g><path d="M 11.410156 -26.625 L 2.28125 -26.625 C 1.40625 -26.625 0.949219 -26.699219 0.648438 -26.433594 C 0.53125 -26.320312 0.417969 -26.09375 0.417969 -25.789062 C 0.378906 -24.914062 0.378906 -24.039062 0.417969 -23.238281 C 0.457031 -22.480469 0.722656 -22.289062 1.484375 -22.25 C 1.636719 -22.210938 1.941406 -22.210938 2.359375 -22.210938 C 3.117188 -22.210938 3.878906 -22.210938 4.261719 -21.792969 C 4.601562 -21.414062 4.601562 -20.917969 4.601562 -19.625 L 4.601562 -2.09375 C 4.601562 -0.949219 4.449219 -0.0390625 5.4375 0 C 6.351562 0.0390625 7.300781 0.0390625 8.292969 0 C 9.203125 -0.0742188 9.089844 -0.949219 9.089844 -2.320312 L 9.089844 -19.246094 C 9.089844 -20.730469 9.050781 -21.375 9.507812 -21.792969 C 9.964844 -22.25 10.765625 -22.210938 11.523438 -22.210938 C 12.210938 -22.210938 12.742188 -22.210938 13.046875 -22.480469 C 13.160156 -22.628906 13.234375 -22.859375 13.234375 -23.203125 C 13.273438 -23.503906 13.273438 -24.074219 13.273438 -24.835938 C 13.273438 -26.625 13.199219 -26.625 11.410156 -26.625 Z M 13.957031 -24.722656 C 13.957031 -24.039062 13.921875 -23.503906 13.921875 -23.164062 C 13.921875 -22.667969 13.84375 -22.210938 13.617188 -21.945312 C 13.121094 -21.453125 12.246094 -21.527344 11.523438 -21.527344 C 10.421875 -21.527344 10.15625 -21.488281 10.003906 -21.300781 C 9.8125 -21.148438 9.773438 -20.730469 9.773438 -19.246094 L 9.773438 -2.320312 C 9.773438 -0.988281 9.964844 0.53125 8.328125 0.683594 C 7.722656 0.722656 7.113281 0.722656 6.503906 0.722656 C 6.503906 1.40625 6.617188 1.863281 7.339844 1.902344 C 8.253906 1.941406 8.367188 1.976562 9.355469 1.902344 C 10.765625 1.789062 10.992188 0.949219 10.992188 -0.417969 L 10.992188 -17.34375 C 10.992188 -19.550781 10.992188 -20.007812 11.183594 -20.195312 C 11.449219 -20.425781 11.753906 -20.460938 12.933594 -20.460938 C 13.691406 -20.460938 14.261719 -20.578125 14.71875 -21.035156 C 15.175781 -21.488281 15.175781 -21.832031 15.175781 -22.933594 C 15.175781 -24.496094 15.136719 -24.683594 13.957031 -24.722656 Z M 2.359375 -21.527344 L 2.320312 -21.527344 L 2.320312 -21.335938 C 2.359375 -20.578125 2.625 -20.386719 3.386719 -20.347656 C 3.5 -20.3125 3.6875 -20.3125 3.917969 -20.3125 C 3.917969 -21.070312 3.839844 -21.222656 3.765625 -21.335938 C 3.613281 -21.488281 3.308594 -21.527344 2.359375 -21.527344 Z M 2.359375 -21.527344 "/></g></g></g><g fill="#7C3AED" fill-opacity="1"><g transform="translate(257.99691, 248.906157)"><g><path d="M 14.378906 -9.128906 C 14.492188 -7 14.453125 -5.589844 14.300781 -4.832031 C 13.273438 0.496094 6.277344 2.625 2.359375 -2.699219 C 1.789062 -3.421875 1.558594 -4.410156 1.558594 -5.667969 C 1.597656 -17.800781 1.597656 -19.703125 1.519531 -20.730469 C 1.445312 -23.050781 3.042969 -25.558594 5.515625 -26.472656 C 6.007812 -26.664062 6.429688 -26.738281 6.808594 -26.738281 C 7.910156 -26.777344 8.710938 -26.738281 9.203125 -26.738281 C 9.546875 -26.699219 9.925781 -26.664062 10.230469 -26.546875 C 11.144531 -26.207031 12.246094 -25.332031 13.503906 -23.847656 C 14.644531 -22.480469 14.453125 -19.511719 14.414062 -18.371094 C 14.378906 -17.457031 14.109375 -17.230469 13.199219 -17.230469 C 12.398438 -17.191406 11.636719 -17.191406 10.839844 -17.230469 C 9.773438 -17.304688 9.964844 -17.457031 9.925781 -19.855469 C 9.851562 -21.300781 8.898438 -22.289062 7.835938 -22.289062 C 7.300781 -22.289062 6.847656 -22.058594 6.464844 -21.640625 C 5.707031 -20.804688 5.78125 -19.929688 5.78125 -18.980469 C 5.742188 -14.566406 5.742188 -10.914062 5.78125 -7.949219 C 5.78125 -7.417969 5.78125 -6.921875 5.855469 -6.464844 C 5.972656 -5.515625 6.542969 -4.449219 7.722656 -4.375 C 8.898438 -4.296875 9.890625 -5.402344 9.925781 -6.808594 L 9.925781 -8.898438 C 10.003906 -9.738281 10.191406 -10.003906 10.992188 -10.003906 C 11.789062 -10.042969 12.664062 -10.042969 13.539062 -10.003906 C 14.074219 -9.964844 14.378906 -9.660156 14.378906 -9.128906 Z M 15.101562 -18.332031 C 15.0625 -16.699219 15.023438 -16.507812 11.828125 -16.507812 C 11.867188 -15.59375 11.980469 -15.480469 12.742188 -15.441406 C 13.539062 -15.402344 13.957031 -15.402344 14.757812 -15.441406 C 15.519531 -15.441406 16.125 -15.898438 16.164062 -16.8125 C 16.203125 -17.953125 16.203125 -20.425781 15.328125 -22.058594 C 15.253906 -22.210938 15.101562 -22.480469 14.984375 -22.480469 C 14.832031 -22.480469 14.871094 -22.363281 14.949219 -21.984375 C 15.214844 -20.5 15.136719 -19.054688 15.101562 -18.332031 Z M 6.960938 -21.183594 C 6.429688 -20.578125 6.464844 -19.96875 6.464844 -18.980469 C 6.429688 -14.566406 6.429688 -10.914062 6.464844 -7.949219 C 6.464844 -7.417969 6.464844 -6.960938 6.542969 -6.578125 L 6.542969 -6.542969 C 6.65625 -5.667969 7.113281 -5.132812 7.722656 -5.058594 C 7.683594 -5.402344 7.683594 -5.78125 7.683594 -6.160156 C 7.644531 -9.128906 7.683594 -14.035156 7.683594 -18.445312 C 7.683594 -19.816406 7.796875 -20.917969 8.597656 -21.300781 C 8.367188 -21.488281 8.101562 -21.605469 7.835938 -21.605469 C 7.492188 -21.605469 7.265625 -21.488281 6.960938 -21.183594 Z M 15.367188 -8.214844 L 15.101562 -8.214844 C 15.175781 -6.617188 15.136719 -5.4375 14.984375 -4.714844 C 14.148438 -0.457031 10.269531 1.558594 6.882812 0.949219 C 6.464844 0.875 6.429688 1.140625 6.808594 1.253906 C 10.535156 2.359375 14.71875 0.496094 15.707031 -3.042969 C 15.9375 -3.804688 16.355469 -5.210938 16.242188 -7.339844 C 16.242188 -7.875 15.898438 -8.214844 15.367188 -8.214844 Z M 15.367188 -8.214844 "/></g></g></g><g fill="#7C3AED" fill-opacity="1"><g transform="translate(278.076494, 248.906157)"><g><path d="M 15.136719 -24.796875 L 15.136719 -2.09375 C 15.136719 -0.0742188 15.023438 0 12.96875 0 C 12.324219 0 11.828125 0 11.488281 -0.0390625 C 10.535156 -0.113281 10.648438 -0.949219 10.648438 -1.976562 L 10.613281 -8.597656 C 10.613281 -9.242188 10.574219 -9.773438 10.460938 -10.15625 C 10.15625 -11.21875 8.519531 -11.066406 7.417969 -10.992188 C 6.3125 -10.914062 6.429688 -9.925781 6.429688 -8.863281 L 6.429688 -1.941406 C 6.429688 -0.152344 6.277344 0 4.410156 0 C 3.117188 0 2.472656 0.0390625 2.167969 -0.265625 C 1.902344 -0.570312 1.902344 -1.066406 1.902344 -2.433594 L 1.902344 -24.835938 C 1.902344 -25.789062 1.976562 -26.320312 2.167969 -26.511719 C 2.546875 -26.851562 4.832031 -26.816406 5.554688 -26.738281 C 6.578125 -26.664062 6.429688 -25.789062 6.429688 -24.648438 L 6.429688 -18.332031 C 6.429688 -17.117188 6.351562 -16.355469 6.769531 -15.9375 C 7.226562 -15.519531 8.558594 -15.519531 9.546875 -15.671875 C 10.6875 -15.785156 10.613281 -16.964844 10.613281 -18.066406 L 10.613281 -21.453125 C 10.613281 -22.933594 10.613281 -24.074219 10.648438 -24.835938 C 10.648438 -25.789062 10.726562 -26.320312 10.914062 -26.511719 C 11.257812 -26.851562 13.539062 -26.816406 14.261719 -26.738281 C 15.289062 -26.664062 15.136719 -25.789062 15.136719 -24.796875 Z M 7.113281 -24.835938 L 7.113281 -18.332031 C 7.113281 -17.117188 7.113281 -16.699219 7.300781 -16.507812 C 7.53125 -16.277344 7.796875 -16.277344 8.328125 -16.277344 L 8.328125 -22.746094 C 8.328125 -23.886719 8.480469 -24.835938 7.453125 -24.835938 Z M 16.164062 -24.835938 L 15.824219 -24.835938 L 15.824219 -2.09375 C 15.824219 0.683594 15.824219 0.683594 12.96875 0.683594 L 12.550781 0.683594 C 12.550781 1.332031 12.703125 1.824219 13.386719 1.863281 C 13.730469 1.902344 14.226562 1.902344 14.871094 1.902344 C 16.734375 1.902344 17.039062 1.179688 17.039062 -0.496094 L 17.039062 -22.898438 C 17.039062 -23.886719 17.191406 -24.835938 16.164062 -24.835938 Z M 7.683594 -10.308594 C 7.339844 -10.269531 7.113281 -9.964844 7.113281 -8.863281 L 7.113281 -1.941406 C 7.113281 0.683594 7.113281 0.683594 4.410156 0.683594 L 3.804688 0.683594 C 3.839844 1.179688 3.917969 1.445312 4.070312 1.636719 C 4.375 1.941406 5.019531 1.902344 6.3125 1.902344 C 8.0625 1.902344 8.328125 1.519531 8.328125 -0.0390625 L 8.328125 -6.960938 C 8.328125 -8.023438 8.214844 -9.015625 9.320312 -9.089844 C 9.507812 -9.089844 9.699219 -9.128906 9.925781 -9.128906 C 9.925781 -9.507812 9.890625 -9.773438 9.8125 -9.964844 C 9.660156 -10.308594 9.355469 -10.421875 7.683594 -10.308594 Z M 7.683594 -10.308594 "/></g></g></g><g fill="#7C3AED" fill-opacity="1"><g transform="translate(184.159271, 215.761512)"><g><path d="M 4.125 -57.988281 L 4.125 -14.519531 L 11.960938 -14.519531 L 11.960938 -27.632812 L 40.75 -27.550781 L 40.75 -34.230469 L 11.960938 -34.230469 L 11.960938 -51.390625 L 40.75 -51.390625 L 40.75 -57.988281 Z M 4.125 -6.597656 L 4.125 0 L 40.75 0 L 40.75 -6.597656 Z M 4.125 -6.597656 "/></g></g></g><g fill="#7C3AED" fill-opacity="1"><g transform="translate(229.030398, 215.761512)"><g><path d="M 4.125 -57.988281 L 4.125 -14.519531 L 11.960938 -14.519531 L 11.960938 -27.632812 L 40.75 -27.550781 L 40.75 -34.230469 L 11.960938 -34.230469 L 11.960938 -51.390625 L 40.75 -51.390625 L 40.75 -57.988281 Z M 4.125 -6.597656 L 4.125 0 L 40.75 0 L 40.75 -6.597656 Z M 4.125 -6.597656 "/></g></g></g><g fill="#7C3AED" fill-opacity="1"><g transform="translate(273.901525, 215.761512)"><g><path d="M 4.125 -57.988281 L 4.125 -23.34375 L 21.613281 -23.34375 L 32.417969 -0.0820312 L 41.160156 -0.0820312 L 29.859375 -24.25 C 32.582031 -25.074219 34.808594 -26.230469 36.542969 -27.714844 C 39.921875 -30.683594 41.574219 -34.972656 41.574219 -40.667969 C 41.574219 -46.359375 39.921875 -50.648438 36.542969 -53.535156 C 33.242188 -56.503906 28.375 -57.988281 21.859375 -57.988281 Z M 11.960938 -51.058594 L 21.859375 -51.058594 C 25.488281 -51.058594 28.292969 -50.234375 30.273438 -48.253906 C 32.253906 -46.359375 33.242188 -43.800781 33.242188 -40.667969 C 33.242188 -37.53125 32.253906 -35.140625 30.273438 -33.160156 C 28.292969 -31.261719 25.488281 -30.273438 21.859375 -30.273438 L 11.960938 -30.273438 Z M 4.125 -15.425781 L 4.125 0 L 11.960938 0 L 11.960938 -15.425781 Z M 4.125 -15.425781 "/></g></g></g><g clip-path="url(#2f41509d2a)"><path fill="#7C3AED" d="M 71.738281 135.839844 L 68.214844 135.839844 C 69.691406 132.320312 72.738281 129.285156 76.3125 128.507812 C 78.8125 125.40625 82.675781 123.535156 86.75 123.535156 C 87.027344 123.535156 87.308594 123.546875 87.589844 123.5625 C 90.289062 120.347656 94.351562 118.417969 98.6875 118.417969 C 102.550781 118.417969 106.203125 119.953125 108.859375 122.578125 C 111.085938 121.351562 113.613281 120.695312 116.21875 120.695312 C 120.15625 120.695312 123.902344 122.195312 126.699219 124.855469 C 132.4375 125.746094 136.886719 130.238281 137.636719 135.84375 L 134.179688 135.84375 C 133.390625 131.621094 129.667969 128.390625 125.121094 128.164062 C 122.984375 125.714844 119.789062 124.15625 116.21875 124.15625 C 113.105469 124.15625 110.28125 125.34375 108.195312 127.265625 C 106.328125 124.054688 102.769531 121.878906 98.683594 121.878906 C 94.582031 121.878906 91.015625 124.066406 89.152344 127.296875 C 88.378906 127.109375 87.578125 127 86.746094 127 C 83.109375 127 79.949219 128.902344 78.234375 131.71875 C 75.402344 131.90625 72.980469 133.53125 71.738281 135.839844 Z M 160.792969 170.730469 L 160.792969 204.261719 C 160.792969 214.027344 152.890625 221.972656 143.171875 221.972656 L 138.507812 221.972656 C 139.011719 227.214844 139.738281 232.390625 140.671875 237.492188 C 141.257812 240.703125 138.84375 243.667969 135.59375 243.667969 L 69.371094 243.667969 C 66.125 243.667969 63.707031 240.699219 64.292969 237.492188 C 66.277344 226.660156 67.316406 215.496094 67.316406 204.089844 L 67.316406 139.09375 L 100.171875 139.09375 C 100.136719 139.363281 100.113281 139.640625 100.113281 139.921875 C 100.113281 140.148438 100.125 140.375 100.148438 140.601562 C 100.199219 141.054688 100.292969 141.496094 100.429688 141.917969 C 100.46875 142.035156 100.511719 142.148438 100.554688 142.265625 C 101.339844 144.269531 103.082031 145.785156 105.21875 146.230469 C 105.636719 146.316406 106.074219 146.363281 106.523438 146.363281 C 106.96875 146.363281 107.402344 146.316406 107.824219 146.230469 C 107.90625 146.214844 107.988281 146.191406 108.070312 146.167969 C 109.054688 145.925781 109.945312 145.457031 110.691406 144.816406 C 110.976562 145.316406 111.296875 145.789062 111.65625 146.234375 C 111.917969 146.558594 112.199219 146.871094 112.5 147.167969 C 112.621094 147.285156 112.742188 147.402344 112.871094 147.515625 C 114.730469 149.171875 117.171875 150.179688 119.855469 150.179688 C 122.535156 150.179688 124.980469 149.171875 126.839844 147.515625 C 127.28125 147.121094 127.6875 146.695312 128.054688 146.234375 C 128.976562 145.085938 129.667969 143.742188 130.050781 142.269531 C 130.078125 142.164062 130.101562 142.058594 130.128906 141.949219 C 130.226562 141.511719 130.300781 141.058594 130.34375 140.597656 C 130.375 140.261719 130.398438 139.925781 130.398438 139.582031 C 130.398438 139.417969 130.394531 139.257812 130.382812 139.097656 L 137.648438 139.097656 L 137.648438 153.023438 L 143.171875 153.023438 C 152.890625 153.023438 160.792969 160.964844 160.792969 170.730469 Z M 84.1875 178.511719 L 84.1875 153.644531 C 84.1875 152.132812 82.957031 150.898438 81.453125 150.898438 C 79.949219 150.898438 78.71875 152.132812 78.71875 153.644531 L 78.71875 178.515625 C 78.71875 180.023438 79.949219 181.261719 81.453125 181.261719 C 82.957031 181.257812 84.1875 180.023438 84.1875 178.511719 Z M 81.457031 185.269531 C 79.953125 185.269531 78.722656 186.503906 78.722656 188.015625 L 78.722656 193.664062 C 78.722656 195.171875 79.949219 196.410156 81.457031 196.410156 C 82.957031 196.410156 84.1875 195.175781 84.1875 193.664062 L 84.1875 188.015625 C 84.1875 186.503906 82.957031 185.269531 81.457031 185.269531 Z M 135.347656 221.972656 C 135.097656 219.335938 134.902344 216.695312 134.761719 214.050781 C 134.582031 210.734375 134.496094 207.410156 134.496094 204.089844 L 134.496094 142.261719 L 133.070312 142.261719 C 132.683594 144.1875 131.890625 145.96875 130.785156 147.503906 C 130.707031 147.609375 130.628906 147.714844 130.550781 147.824219 L 130.550781 204.085938 C 130.550781 207.390625 130.640625 210.714844 130.8125 214.042969 C 130.949219 216.6875 131.144531 219.332031 131.390625 221.964844 C 131.484375 223.007812 131.589844 224.050781 131.703125 225.085938 C 131.816406 226.132812 131.5 227.136719 130.800781 227.917969 C 130.117188 228.6875 129.167969 229.109375 128.136719 229.109375 L 76.832031 229.109375 C 75.800781 229.109375 74.851562 228.683594 74.167969 227.914062 C 73.472656 227.136719 73.152344 226.132812 73.269531 225.085938 C 74.035156 218.109375 74.421875 211.046875 74.421875 204.082031 L 74.421875 146.226562 L 99.589844 146.226562 C 98.589844 145.113281 97.851562 143.761719 97.46875 142.261719 L 70.472656 142.261719 L 70.472656 204.085938 C 70.472656 210.949219 70.09375 217.828125 69.34375 224.660156 C 68.851562 229.152344 72.332031 233.078125 76.828125 233.078125 L 128.132812 233.078125 C 132.632812 233.078125 136.113281 229.148438 135.617188 224.660156 C 135.527344 223.765625 135.433594 222.871094 135.347656 221.972656 Z M 152.910156 170.730469 C 152.910156 165.335938 148.542969 160.945312 143.171875 160.945312 L 137.648438 160.945312 L 137.648438 204.089844 C 137.648438 207.429688 137.742188 210.75 137.917969 214.050781 L 143.171875 214.050781 C 148.542969 214.050781 152.910156 209.660156 152.910156 204.265625 Z M 152.910156 170.730469 " fill-opacity="1" fill-rule="nonzero"/></g><g fill="#7C3AED" fill-opacity="1"><g transform="translate(130.502528, 222.281345)"><g><path d="M 5.132812 -70.667969 L 5.035156 -32.414062 C 8.253906 -32.515625 12.785156 -32.515625 18.824219 -32.414062 C 24.863281 -32.414062 28.890625 -32.3125 30.804688 -32.3125 L 32.816406 -32.3125 C 33.824219 -32.414062 34.425781 -32.515625 34.730469 -32.414062 C 35.132812 -32.414062 35.636719 -32.414062 36.339844 -32.3125 C 37.144531 -32.3125 37.546875 -32.210938 37.851562 -32.113281 C 38.253906 -32.113281 38.554688 -32.011719 39.058594 -31.808594 C 39.660156 -31.710938 39.964844 -31.507812 40.367188 -31.308594 C 40.769531 -31.105469 41.171875 -30.902344 41.472656 -30.5 C 43.992188 -28.488281 45.199219 -25.167969 45.199219 -20.738281 C 45.199219 -16.410156 43.992188 -13.1875 41.472656 -10.972656 C 39.058594 -8.960938 35.234375 -7.851562 30.097656 -7.851562 L 14.695312 -7.851562 L 14.695312 -24.359375 L 5.132812 -24.359375 L 5.132812 0.101562 L 30.5 0.101562 C 38.453125 0.101562 44.59375 -1.609375 48.824219 -5.035156 C 53.152344 -8.554688 55.265625 -13.488281 55.265625 -19.730469 C 55.265625 -24.058594 54.660156 -27.582031 53.453125 -30.300781 C 52.34375 -33.117188 50.433594 -35.636719 47.816406 -38.050781 C 49.726562 -40.367188 50.835938 -42.582031 51.441406 -44.796875 C 52.042969 -47.011719 52.34375 -49.828125 52.34375 -53.152344 C 52.34375 -58.789062 50.535156 -63.117188 46.507812 -66.136719 C 42.582031 -69.15625 36.945312 -70.667969 29.59375 -70.667969 Z M 14.695312 -62.816406 L 28.890625 -62.816406 C 33.519531 -62.816406 37.042969 -62.007812 39.257812 -60.199219 C 41.675781 -58.386719 42.78125 -55.769531 42.78125 -52.144531 C 42.78125 -48.519531 41.675781 -45.902344 39.257812 -44.089844 C 37.042969 -42.378906 33.519531 -41.472656 28.890625 -41.472656 L 14.695312 -41.472656 Z M 14.695312 -62.816406 "/></g></g></g></svg>